<svg xmlns="http://www.w3.org/2000/svg" width="712" height="224" viewBox="0 0 712 224">
  <metadata><?xpacket begin="﻿" id="W5M0MpCehiHzreSzNTczkc9d"?>
<x:xmpmeta xmlns:x="adobe:ns:meta/" x:xmptk="Adobe XMP Core 5.6-c138 79.159824, 2016/09/14-01:09:01        ">
   <rdf:RDF xmlns:rdf="http://www.w3.org/1999/02/22-rdf-syntax-ns#">
      <rdf:Description rdf:about=""/>
   </rdf:RDF>
</x:xmpmeta>
                                                                                                    
                                                                                                    
                                                                                                    
                                                                                                    
                                                                                                    
                                                                                                    
                                                                                                    
                                                                                                    
                                                                                                    
                                                                                                    
                                                                                                    
                                                                                                    
                                                                                                    
                                                                                                    
                                                                                                    
                                                                                                    
                                                                                                    
                                                                                                    
                                                                                                    
                                                                                                    
                           
<?xpacket end="w"?></metadata>
<defs>
    <style>
      .cls-1 {
        fill: #fff;
      }

      .cls-2 {
        fill: #18447e;
        fill-rule: evenodd;
      }
    </style>
  </defs>
  <rect class="cls-1" x="24" y="24" width="663" height="175"/>
  <path class="cls-2" d="M24,24H688V200H24V24Zm8,8H680V192H32V32Z"/>
  <path id="bemani" class="cls-2" d="M116.128,107.292L105.382,96.574H73.741V54.386H52.448V171h53.133q3.778-3.969,10.547-10.718v-52.99ZM73.741,149.707v-35.84H94.835v35.84H73.741Zm121.787-5.572H174.235v5.572H153.141v-15.92h42.387V107.32L184.782,96.574H142.594l-10.746,10.718v52.99Q142.594,171,142.793,171h41.989l10.746-10.746V144.135Zm-42.387-20.7v-9.572h21.094v9.572H153.141Zm164.372-15.948-10.6-10.917h-31.99L264.085,107.32,253.634,96.574H211.248V171h21.293V113.867h21.093V171h21.293V113.867H296.22V171h21.293V107.491Zm79.6-10.917H344.177q-3.782,3.773-10.746,10.718v52.99Q344.177,171,344.376,171h52.735V96.574Zm-42.387,53.133v-35.84h21.094v35.84H354.724Zm122.981-42.415L466.959,96.574H414.024V171h21.293V113.867h21.094V171h21.294V107.292Zm37.21-52.906H493.622v20.9h21.293v-20.9Zm0,42.188H493.622V171h21.293V96.574Z"/>
  <path id="FI" class="cls-2" d="M540,32H680V192H540V32Zm86.318,16.056H568.053L556.27,59.418V176.331h23.422V117.885h23.2V94.463h-23.2V71.478h46.626V48.056Zm37.649,0H640.545V176.331h23.422V48.056Z"/>
</svg>
