<svg xmlns="http://www.w3.org/2000/svg" width="1328" height="356" viewBox="0 0 664 178">
  <metadata><?xpacket begin="﻿" id="W5M0MpCehiHzreSzNTczkc9d"?>
<x:xmpmeta xmlns:x="adobe:ns:meta/" x:xmptk="Adobe XMP Core 5.6-c138 79.159824, 2016/09/14-01:09:01        ">
   <rdf:RDF xmlns:rdf="http://www.w3.org/1999/02/22-rdf-syntax-ns#">
      <rdf:Description rdf:about=""/>
   </rdf:RDF>
</x:xmpmeta>
                                                                                                    
                                                                                                    
                                                                                                    
                                                                                                    
                                                                                                    
                                                                                                    
                                                                                                    
                                                                                                    
                                                                                                    
                                                                                                    
                                                                                                    
                                                                                                    
                                                                                                    
                                                                                                    
                                                                                                    
                                                                                                    
                                                                                                    
                                                                                                    
                                                                                                    
                                                                                                    
                           
<?xpacket end="w"?></metadata>
<defs>
    <style>
      .cls-1 {
        fill: #fff;
      }

      .cls-2 {
        fill: #18447e;
        fill-rule: evenodd;
      }
    </style>
  </defs>
  <rect id="bg" class="cls-1" width="664" height="178"/>
  <path id="bemani" class="cls-2" d="M94,84L83,73H63L52,84H72v42H52V30H30V147H83l11-11V84Zm38,43V89h20v14h-9l-11,11h42V84L163,73H121L110,84v52s10.866,11,11,11h42l11-11v-9M296,84L285,73H254L243,84,232,73H190v74h22V89h20v58h22V89h20v58h22V84Zm80-11H323L312,84v52l11,11h20l11-11v-9H334V89h20v58h22V73Zm80,11L445,73H392v74h22V89h20v58h22V84Zm38-54H472V61l22-22V30Zm0,32L472,84v63h22V62Z"/>
  <path id="FI" class="cls-2" d="M0,0H664V178H0V0ZM8,8H516V170H8V8ZM604,24H547L536,35V153h24V93h26V69H560V47h44V24Zm40,0H620V153h24V24Z"/>
</svg>
