<?xml version="1.0" standalone="no"?>
<!DOCTYPE svg PUBLIC "-//W3C//DTD SVG 20010904//EN"
 "http://www.w3.org/TR/2001/REC-SVG-20010904/DTD/svg10.dtd">
<svg version="1.0" xmlns="http://www.w3.org/2000/svg"
 width="700.000000pt" height="700.000000pt" viewBox="0 0 700.000000 700.000000"
 preserveAspectRatio="xMidYMid meet">
<metadata>
Created by potrace 1.14, written by Peter Selinger 2001-2017
</metadata>
<g transform="translate(0.000000,700.000000) scale(0.100000,-0.100000)"
fill="#000000" stroke="none">
<path d="M1023 6288 c2 -696 2 -711 21 -714 11 -2 199 -4 418 -5 219 -1 421
-6 450 -11 67 -12 193 -54 236 -79 18 -10 37 -19 42 -19 5 0 9 23 8 51 0 28 2
53 5 55 3 3 166 6 363 7 l359 2 0 713 1 712 -953 0 -952 0 2 -712z"/>
<path d="M919 5329 c0 -13 -1 -88 -2 -166 l-2 -142 80 -3 80 -3 1 -487 1 -488
-26 -1 c-14 0 -50 -1 -80 -2 l-54 -2 0 -145 c1 -80 2 -153 2 -163 1 -18 22
-18 509 -14 548 4 550 5 667 62 89 43 159 121 195 217 29 77 31 261 4 328 -48
121 -131 189 -293 240 -41 13 -42 15 -20 23 132 52 214 117 249 199 20 46 22
64 18 158 -4 87 -9 114 -31 160 -60 124 -186 209 -349 236 -18 3 -239 8 -490
11 l-458 5 -1 -23z m834 -331 c57 -25 81 -66 82 -140 0 -109 -57 -149 -221
-152 -89 -2 -104 0 -105 13 -4 43 -5 287 -2 294 3 4 49 6 103 6 72 -2 111 -7
143 -21z m-24 -583 c43 -8 96 -46 122 -89 23 -36 25 -144 4 -186 -37 -72 -94
-95 -242 -99 l-108 -2 0 188 c0 173 1 188 18 193 25 7 160 3 206 -5z"/>
<path d="M2421 5185 l-2 -165 86 0 85 0 0 -490 0 -490 -62 -1 c-35 -1 -73 0
-85 1 -21 1 -21 -1 -22 -164 l-1 -166 735 0 735 0 0 110 c1 141 1 336 0 448
l0 87 -127 -1 c-71 -1 -135 -2 -144 -3 -10 -1 -20 -13 -24 -28 -3 -16 -24 -85
-46 -155 l-39 -126 -247 1 -247 2 1 155 c1 85 2 163 2 173 1 15 16 17 161 17
l160 0 0 179 c0 162 -2 179 -17 183 -10 2 -82 3 -160 3 -95 -1 -143 2 -144 9
-1 13 -1 226 0 243 1 10 56 12 246 10 l245 -2 19 -50 c11 -27 33 -84 49 -125
l29 -75 141 -3 142 -3 0 106 c1 58 1 161 1 230 0 69 0 154 -1 190 l0 64 -734
0 -733 1 -2 -165z"/>
<path d="M4052 5181 l1 -166 78 3 79 4 1 -29 c5 -114 3 -946 -2 -949 -4 -2
-40 -4 -81 -5 l-75 -1 -1 -164 0 -164 376 2 376 3 -1 152 c-1 83 -4 156 -7
162 -4 5 -41 10 -82 10 -42 0 -79 2 -81 5 -6 6 -5 867 1 873 1 2 54 -131 116
-294 63 -164 133 -347 157 -407 24 -61 43 -115 43 -122 0 -32 28 -40 121 -39
l94 1 37 94 c20 52 93 243 162 424 69 181 129 333 134 338 7 7 11 -150 11
-431 l2 -441 -68 -1 c-37 -1 -77 -1 -88 0 -20 2 -21 -4 -21 -164 l0 -165 375
0 376 0 -2 157 c0 87 -1 162 -2 166 -1 5 -20 8 -43 7 -24 -2 -61 -2 -83 -1
l-40 1 0 490 0 491 25 -2 c14 0 52 -1 85 0 l60 1 -1 162 0 163 -382 3 -382 3
-10 -23 c-5 -13 -41 -113 -80 -223 -39 -110 -75 -209 -80 -220 -5 -11 -21 -53
-35 -94 -38 -110 -41 -113 -60 -66 -9 22 -20 49 -25 60 -5 11 -55 142 -111
290 l-102 270 -383 1 -383 2 1 -167z"/>
<path d="M6149 4450 c-3 -18 -4 -158 -1 -172 3 -14 15 -16 73 -14 38 1 73 -1
78 -4 5 -3 9 -177 9 -387 l0 -383 -27 -1 c-14 -1 -95 -2 -178 -2 l-153 -1 0
-371 0 -371 -72 1 c-40 1 -79 0 -85 -3 -9 -3 -13 -32 -12 -98 1 -89 2 -94 22
-95 24 0 373 0 875 0 l322 1 0 950 c0 523 -3 950 -7 950 -71 4 -843 4 -844 0z"/>
<path d="M0 3500 c0 -753 3 -950 13 -951 6 0 236 0 509 0 l498 1 1 -67 c0 -38
1 -113 2 -168 l2 -100 92 -3 91 -2 16 52 c8 29 45 147 81 262 66 212 69 234
25 221 -38 -12 -40 0 -42 376 l-3 364 -292 1 c-161 0 -296 3 -300 8 -4 4 -8
178 -8 387 0 330 2 379 15 380 8 1 45 1 83 1 44 0 67 4 68 11 1 7 2 49 3 95
l1 82 -427 0 -428 0 0 -950z"/>
<path d="M1520 3276 c-3 -115 0 -300 4 -304 3 -2 37 -5 76 -5 49 -1 70 -5 70
-14 0 -7 -39 -137 -86 -290 -47 -153 -94 -305 -104 -338 -10 -33 -33 -105 -50
-160 -17 -55 -36 -117 -42 -137 l-10 -38 -69 0 -69 0 -1 -72 c-1 -114 2 -252
5 -256 6 -5 699 -3 704 3 9 9 1 310 -9 316 -5 3 -35 7 -67 8 -31 1 -58 4 -60
5 -1 2 10 49 25 105 l28 101 65 0 c91 1 286 1 342 1 l47 -1 24 -77 c13 -43 27
-90 31 -105 l6 -28 -70 0 -70 0 0 -165 c0 -150 2 -165 18 -165 375 -3 686 1
691 8 3 6 6 79 5 164 l0 153 -68 2 c-37 1 -71 4 -74 7 -5 6 -198 622 -206 661
-2 11 -24 84 -49 163 -24 78 -41 143 -36 143 5 1 14 3 19 4 6 1 37 3 69 4 l59
1 -1 163 -2 162 -572 1 -573 1 0 -21z m686 -623 c24 -78 44 -144 44 -146 0 -9
-298 -8 -303 0 -6 10 106 397 140 483 6 15 37 -72 119 -337z"/>
<path d="M3100 3133 l0 -163 85 0 85 0 0 -490 0 -490 -32 -1 c-18 -1 -55 -2
-83 -2 l-50 -1 -2 -163 -3 -163 70 0 c39 0 180 0 315 0 135 0 273 0 308 0 l64
0 -1 154 c-1 85 -5 158 -9 163 -8 7 -26 9 -128 12 l-37 1 -2 83 c-5 191 -5
485 0 519 5 35 15 20 265 -389 273 -447 312 -511 321 -530 4 -8 58 -12 184
-13 l178 -1 0 628 c1 346 1 640 1 656 l1 27 83 0 83 0 -2 158 c-1 86 -2 160
-3 163 0 3 -167 6 -371 6 -331 0 -370 -2 -371 -16 -1 -9 -2 -82 -3 -163 l-1
-148 87 0 88 0 1 -82 c0 -46 2 -170 5 -275 3 -126 1 -193 -6 -193 -5 0 -10 4
-10 9 0 5 -17 36 -39 68 -37 55 -268 435 -416 681 -37 61 -70 112 -73 113 -4
0 -136 2 -294 3 l-288 3 0 -164z"/>
<path d="M4963 3133 l0 -163 84 0 83 0 0 -490 0 -489 -82 -3 -83 -3 -1 -162
-1 -163 381 0 382 0 -1 163 0 162 -87 3 -88 3 0 489 0 489 88 3 87 3 0 160 0
160 -381 1 -380 1 -1 -164z"/>
<path d="M1025 1430 c-2 -3 -3 -326 -4 -718 l0 -712 953 0 952 0 0 717 -1 718
-948 0 c-522 0 -950 -2 -952 -5z"/>
</g>
</svg>
